<?xml version="1.0" encoding="UTF-8" standalone="no"?>
<!-- Created with Inkscape (http://www.inkscape.org/) -->

<svg
   version="1.1"
   id="svg2"
   width="793.70135"
   height="1122.52"
   viewBox="0 0 793.70135 1122.52"
   sodipodi:docname="logo.ai"
   xmlns:inkscape="http://www.inkscape.org/namespaces/inkscape"
   xmlns:sodipodi="http://sodipodi.sourceforge.net/DTD/sodipodi-0.dtd"
   xmlns="http://www.w3.org/2000/svg"
   xmlns:svg="http://www.w3.org/2000/svg">
  <defs
     id="defs6">
    <clipPath
       clipPathUnits="userSpaceOnUse"
       id="clipPath16">
      <path
         d="M 0,841.89 H 595.276 V 0 H 0 Z"
         id="path14" />
    </clipPath>
  </defs>
  <sodipodi:namedview
     id="namedview4"
     pagecolor="#ffffff"
     bordercolor="#000000"
     borderopacity="0.25"
     inkscape:showpageshadow="2"
     inkscape:pageopacity="0.0"
     inkscape:pagecheckerboard="0"
     inkscape:deskcolor="#d1d1d1" />
  <g
     id="g8"
     inkscape:groupmode="layer"
     inkscape:label="logo"
     transform="matrix(1.3333333,0,0,-1.3333333,0,1122.52)">
    <g
       id="g10">
      <g
         id="g12"
         clip-path="url(#clipPath16)">
        <g
           id="g18"
           transform="translate(323.0977,291.0031)">
          <path
             d="m 0,0 c 91.037,0 164.836,73.526 164.836,164.228 0,90.701 -73.799,164.228 -164.836,164.228 -91.037,0 -164.836,-73.527 -164.836,-164.228 C -164.836,73.526 -91.037,0 0,0"
             style="fill:#ffffff;fill-opacity:1;fill-rule:nonzero;stroke:none"
             id="path20" />
        </g>
        <g
           id="g22"
           transform="translate(438.4785,340.7931)">
          <path
             d="m 0,0 c -63.642,-63.642 -167.193,-63.64 -230.833,0 -63.64,63.64 -63.64,167.191 0,230.832 30.829,30.829 71.818,47.808 115.416,47.808 43.599,0 84.588,-16.979 115.416,-47.808 C 30.829,200.003 47.808,159.014 47.808,115.416 47.808,71.817 30.829,30.828 0,0 m 26.194,257.026 c -37.825,37.827 -88.117,58.659 -141.611,58.659 -53.493,0 -103.785,-20.832 -141.611,-58.659 -71.261,-71.261 -77.474,-183.299 -18.666,-261.688 -0.475,-0.416 -0.943,-0.844 -1.395,-1.296 l -126.769,-126.769 c -11.129,-11.127 -11.129,-29.17 0,-40.298 5.565,-5.566 12.856,-8.347 20.15,-8.347 7.291,0 14.585,2.783 20.149,8.347 l 126.769,126.768 c 0.453,0.452 0.88,0.92 1.296,1.395 35.441,-26.588 77.756,-39.896 120.078,-39.896 51.284,0 102.568,19.521 141.611,58.563 37.826,37.826 58.658,88.117 58.658,141.611 0,53.493 -20.832,103.785 -58.659,141.61"
             style="fill:#2fb4e9;fill-opacity:1;fill-rule:nonzero;stroke:none"
             id="path24" />
        </g>
        <path
           d="m 397.471,414.763 h -38.81 v 30.706 h 38.81 z m -110.732,0 h -38.81 v 30.706 h 38.81 z m 177.635,50.465 -141.321,111.05 -141.302,-111.05 41.379,1.029 V 360.374 h 81.029 v 71.703 h 38.806 v -71.703 h 80.024 v 105.883 z"
           style="fill:#afca0b;fill-opacity:1;fill-rule:nonzero;stroke:none"
           id="path26" />
        <g
           id="g28"
           transform="translate(130.1919,352.7101)">
          <path
             d="M 0,0 C 3.525,1.476 4.818,3.58 3.487,6.759 L 2.713,8.607 c -1.404,3.353 -3.738,3.735 -7.263,2.257 l -15.547,-6.51 8.897,8.278 c 1.237,1.264 2.614,1.706 0.799,6.04 -1.815,4.335 -3.226,3.811 -4.889,3.726 l -12.626,-0.669 16.008,6.706 c 3.526,1.476 4.819,3.58 3.487,6.757 l -0.774,1.851 c -1.38,3.294 -3.737,3.732 -7.263,2.257 L -43.505,27.973 c -3.699,-1.549 -4.774,-4.173 -3.322,-7.64 l 1.356,-3.237 c 1.113,-2.658 2.199,-3.63 5.202,-3.663 l 17.534,0.141 -12.427,-12.337 c -1.934,-2.031 -2.25,-3.386 -0.967,-6.449 l 1.379,-3.296 c 1.38,-3.294 4.004,-4.368 7.703,-2.819 z m -31.763,39.822 c 12.181,2.353 19.108,12.75 16.733,25.055 -2.363,12.243 -12.724,19.304 -24.844,16.965 -12.12,-2.341 -19.046,-12.738 -16.683,-24.982 2.363,-12.243 12.736,-19.365 24.794,-17.038 m -2.351,12.182 c -6.029,-1.164 -10.509,1.545 -11.554,6.959 -1.021,5.291 2.301,9.57 8.145,10.698 5.906,1.14 10.459,-1.619 11.481,-6.909 1.033,-5.354 -2.166,-9.608 -8.072,-10.748 m 8.951,36.061 c 3.822,-0.046 5.849,1.746 5.892,5.192 l 0.013,1.065 c 0.044,3.571 -1.938,5.475 -5.759,5.523 l -16.165,0.198 19.418,14.612 c 2.026,1.667 2.788,2.534 2.825,5.542 l 0.013,1.003 c 0.039,3.132 -1.88,5.098 -5.764,5.146 l -29.509,0.364 c -3.822,0.048 -5.849,-1.744 -5.892,-5.19 l -0.013,-1.065 c -0.044,-3.571 1.938,-5.476 5.759,-5.523 l 16.039,-0.198 -19.1,-14.301 c -2.089,-1.729 -2.978,-2.659 -3.014,-5.603 l -0.015,-1.19 c -0.04,-3.195 1.879,-5.162 5.763,-5.21 z m 1.154,43.496 c 3.734,-0.819 6.001,0.159 6.739,3.524 l 0.43,1.959 c 0.778,3.55 -0.912,5.204 -4.645,6.023 l -16.463,3.611 12.038,1.656 c 1.739,0.325 3.12,-0.106 4.126,4.484 1.007,4.59 -0.448,4.974 -1.858,5.86 l -10.715,6.712 16.953,-3.718 c 3.733,-0.819 6,0.159 6.739,3.525 l 0.429,1.959 c 0.765,3.488 -0.911,5.203 -4.645,6.022 l -28.642,6.281 c -3.917,0.861 -6.305,-0.668 -7.11,-4.341 l -0.752,-3.428 c -0.618,-2.815 -0.288,-4.234 2.15,-5.987 l 14.429,-9.964 -17.261,-2.95 c -2.751,-0.551 -3.788,-1.478 -4.5,-4.722 l -0.765,-3.488 c -0.765,-3.489 0.764,-5.877 4.681,-6.736 z m -2.908,51.104 c 11.248,-5.234 22.955,-0.867 28.241,10.495 5.259,11.305 1.002,23.099 -10.189,28.305 -11.191,5.207 -22.898,0.841 -28.158,-10.465 -5.259,-11.304 -1.029,-23.155 10.106,-28.335 m 5.233,11.248 c -5.567,2.589 -7.609,7.41 -5.283,12.409 2.273,4.886 7.472,6.406 12.869,3.895 5.453,-2.537 7.526,-7.44 5.253,-12.326 -2.3,-4.942 -7.385,-6.516 -12.839,-3.978 m 18.207,30.702 c 9.926,-7.125 18.67,-5.689 25.831,4.288 7.162,9.975 5.762,18.771 -4.163,25.896 L 4.194,264.847 c -3.207,2.301 -5.83,1.871 -7.913,-1.031 l -0.95,-1.323 c -2.01,-2.799 -1.688,-5.576 1.518,-7.877 l 13.998,-10.048 c 4.224,-3.033 5.062,-5.948 2.687,-9.257 -2.338,-3.257 -5.543,-3.425 -9.615,-0.501 l -14.049,10.084 c -3.155,2.266 -5.829,1.871 -7.949,-1.082 l -0.913,-1.271 c -2.01,-2.8 -1.638,-5.612 1.518,-7.877 z m 41.921,32.553 c 2.664,-2.74 5.32,-2.955 7.791,-0.553 l 1.258,1.223 c 2.606,2.533 2.646,5.368 -0.018,8.109 l -16.814,17.298 4.718,4.585 c 2.786,2.708 2.825,5.455 0.336,8.016 l -0.131,0.133 c -2.402,2.473 -5.018,2.376 -7.804,-0.332 L 9.134,277.524 c -2.695,-2.62 -2.91,-5.275 -0.508,-7.746 l 0.131,-0.135 c 2.489,-2.561 5.28,-2.558 7.976,0.064 l 4.898,4.76 z m 18.296,17.28 c 2.141,-3.166 4.77,-3.809 7.624,-1.878 l 1.505,1.018 c 3.01,2.036 3.444,4.75 1.302,7.915 l -5.371,7.941 10.743,7.267 5.371,-7.94 c 2.142,-3.167 4.77,-3.808 7.625,-1.877 l 1.557,1.053 c 2.958,2.001 3.391,4.715 1.25,7.881 l -16.535,24.443 c -2.177,3.218 -4.822,3.773 -7.78,1.772 l -1.557,-1.052 c -2.855,-1.931 -3.272,-4.558 -1.095,-7.776 l 5.266,-7.785 -10.743,-7.267 -5.266,7.785 c -2.176,3.218 -4.822,3.773 -7.832,1.737 l -1.505,-1.018 c -2.854,-1.931 -3.271,-4.558 -1.094,-7.775 z m 33.919,24.336 c 1.693,-3.91 7.222,-5.953 18.146,-1.221 11.211,4.857 14.82,11.815 11.308,19.922 -2.965,6.842 -9.911,7.588 -17.91,6.034 -4.284,-0.832 -7.198,-2.299 -8.145,-0.114 -0.797,1.84 0.422,3.596 3.756,5.042 3.508,1.519 8.107,1.463 11.575,0.235 0.33,-0.131 2.986,4.297 1.591,7.517 -1.594,3.679 -7.318,5.229 -17.092,0.993 -10.233,-4.432 -13.825,-11.588 -10.512,-19.235 3.338,-7.705 10.75,-7.633 17.507,-6.208 4.086,0.813 7.018,2.084 8.015,-0.215 0.822,-1.897 -0.34,-3.63 -3.904,-5.174 -3.967,-1.719 -9.546,-1.61 -12.907,-0.471 -0.47,0.138 -2.624,-4.347 -1.428,-7.105 m 35.509,12.9 c 0.859,-3.725 3.081,-5.27 6.439,-4.496 l 1.77,0.409 c 3.541,0.817 4.922,3.194 4.063,6.918 l -2.155,9.34 12.638,2.916 2.155,-9.34 c 0.859,-3.725 3.08,-5.27 6.438,-4.495 l 1.832,0.421 c 3.48,0.804 4.861,3.18 4.002,6.905 l -6.634,28.756 c -0.874,3.785 -3.142,5.254 -6.622,4.452 l -1.832,-0.422 c -3.357,-0.776 -4.691,-3.076 -3.818,-6.862 l 2.113,-9.157 -12.638,-2.916 -2.113,9.158 c -0.873,3.785 -3.142,5.254 -6.683,4.437 l -1.77,-0.407 c -3.358,-0.776 -4.692,-3.076 -3.819,-6.862 z m 42.3,8.366 c 0.317,-3.809 2.294,-5.656 5.729,-5.37 l 1.81,0.15 c 3.559,0.296 5.266,2.451 4.949,6.258 l -2.448,29.411 c -0.322,3.871 -2.356,5.65 -5.915,5.355 l -1.811,-0.151 c -3.434,-0.286 -5.084,-2.372 -4.762,-6.244 z m 17.311,3.118 c -0.166,-4.57 1.552,-7.328 4.996,-7.453 l 1.753,-0.064 c 3.632,-0.131 5.585,1.867 5.722,5.623 l 0.258,7.139 2.254,-0.082 5.484,-7.848 c 2.499,-3.726 4.378,-5.487 8.261,-5.629 5.384,-0.194 7.714,3.545 7.357,4.061 l -8.732,11.664 c 5.757,1.421 8.984,5.693 9.198,11.58 0.313,8.641 -5.155,13.479 -16.426,13.886 l -12.523,0.454 c -4.133,0.149 -6.475,-2.21 -6.639,-6.719 z m 12.863,14.143 0.343,9.455 5.134,-0.186 c 3.945,-0.143 5.702,-1.836 5.589,-4.967 -0.109,-3.007 -2.049,-4.629 -5.806,-4.492 z M 225.26,320.84 c -0.98,-4.467 0.727,-7.215 4.766,-8.101 l 21.36,-4.685 c 3.855,-0.846 6.072,0.785 6.811,4.151 l 0.068,0.306 c 0.698,3.182 -0.715,5.224 -4.571,6.07 l -15.361,3.369 1.007,4.59 10.036,-2.202 c 3.979,-0.872 6.095,0.589 6.792,3.77 l 0.041,0.184 c 0.658,3 -0.618,5.076 -4.658,5.961 l -10.037,2.202 0.873,3.978 15.055,-3.302 c 3.917,-0.86 6.082,0.526 6.82,3.892 l 0.067,0.307 c 0.698,3.182 -0.647,5.529 -4.564,6.389 l -21.055,4.617 c -4.038,0.887 -6.765,-1.017 -7.731,-5.423 z"
             style="fill:#afca0b;fill-opacity:1;fill-rule:nonzero;stroke:none"
             id="path30" />
        </g>
        <g
           id="g32"
           transform="translate(399.2734,661.0621)">
          <path
             d="M 0,0 C -1.611,-3.465 -0.811,-6.05 2.314,-7.503 L 3.961,-8.27 c 3.296,-1.533 5.846,-0.508 7.458,2.957 l 4.044,8.692 11.76,-5.471 -4.044,-8.692 c -1.613,-3.465 -0.811,-6.049 2.313,-7.503 l 1.704,-0.793 c 3.24,-1.507 5.789,-0.482 7.402,2.984 l 12.448,26.757 c 1.639,3.522 0.754,6.076 -2.484,7.583 l -1.705,0.792 c -3.124,1.454 -5.59,0.46 -7.23,-3.063 l -3.965,-8.521 -11.759,5.471 3.965,8.522 c 1.639,3.522 0.753,6.076 -2.542,7.609 L 19.68,29.82 c -3.125,1.454 -5.592,0.459 -7.231,-3.063 z m 46.126,-6.022 c -7.36,-9.986 -5.403,-22.326 4.684,-29.762 10.036,-7.398 22.439,-5.566 29.763,4.37 7.324,9.936 5.367,22.276 -4.67,29.674 C 65.867,5.658 53.412,3.863 46.126,-6.022 m 9.986,-7.361 c 3.643,4.943 8.774,5.988 13.211,2.716 4.337,-3.197 4.796,-8.594 1.264,-13.386 -3.568,-4.842 -8.785,-5.9 -13.124,-2.703 -4.387,3.235 -4.92,8.531 -1.351,13.373 m 18.023,-32.542 c -2.872,-2.522 -3.429,-4.928 -1.155,-7.518 l 1.324,-1.506 c 2.397,-2.731 4.73,-2.35 7.602,0.172 l 12.665,11.122 -5.799,-10.679 c -0.769,-1.593 -1.935,-2.45 1.166,-5.981 3.101,-3.531 4.272,-2.586 5.822,-1.976 l 11.757,4.654 -13.042,-11.452 c -2.872,-2.522 -3.427,-4.928 -1.155,-7.518 l 1.324,-1.506 c 2.356,-2.684 4.731,-2.35 7.603,0.172 l 22.034,19.349 c 3.013,2.646 3.198,5.475 0.716,8.3 l -2.314,2.637 c -1.903,2.165 -3.242,2.741 -6.099,1.816 l -16.575,-5.717 7.852,15.651 c 1.187,2.543 1.054,3.928 -1.136,6.423 l -2.358,2.684 c -2.356,2.683 -5.185,2.867 -8.199,0.221 z m 31.89,-35.936 c -3.969,-2.273 -4.861,-5.382 -2.806,-8.971 l 10.863,-18.977 c 1.961,-3.426 4.658,-3.976 7.649,-2.264 l 0.272,0.156 c 2.828,1.619 3.393,4.036 1.433,7.462 l -7.814,13.648 4.078,2.335 5.106,-8.918 c 2.022,-3.534 4.525,-4.123 7.353,-2.504 l 0.163,0.093 c 2.665,1.525 3.347,3.865 1.292,7.454 l -5.104,8.918 3.534,2.023 7.657,-13.377 c 1.992,-3.48 4.473,-4.154 7.463,-2.442 l 0.273,0.156 c 2.827,1.618 3.665,4.191 1.672,7.672 L 138.4,-70.692 c -2.053,3.589 -5.295,4.333 -9.211,2.092 z m 17.905,-30.712 c -3.989,-1.501 -6.3,-6.923 -2.107,-18.065 4.303,-11.435 11.077,-15.38 19.345,-12.268 6.979,2.626 8.063,9.528 6.903,17.593 -0.621,4.319 -1.945,7.302 0.284,8.141 1.876,0.706 3.573,-0.598 4.852,-3.999 1.347,-3.577 1.065,-8.168 -0.332,-11.572 -0.146,-0.323 4.147,-3.193 7.432,-1.957 3.754,1.412 5.58,7.054 1.829,17.023 -3.929,10.438 -10.901,14.375 -18.699,11.44 -7.859,-2.957 -8.151,-10.364 -7.058,-17.183 0.614,-4.12 1.739,-7.111 -0.607,-7.994 -1.935,-0.728 -3.608,0.517 -4.977,4.152 -1.522,4.047 -1.14,9.613 0.162,12.915 0.16,0.462 -4.213,2.833 -7.027,1.774 m 12.229,-35.82 c -4.491,-0.867 -6.34,-3.522 -5.555,-7.582 l 4.143,-21.471 c 0.749,-3.876 3.123,-5.268 6.507,-4.615 l 0.308,0.06 c 3.2,0.617 4.515,2.722 3.767,6.598 l -2.98,15.442 4.613,0.89 1.948,-10.089 c 0.773,-3.999 2.95,-5.365 6.15,-4.748 l 0.184,0.036 c 3.015,0.582 4.416,2.575 3.632,6.636 l -1.946,10.089 3.999,0.772 2.921,-15.134 c 0.759,-3.937 2.888,-5.377 6.271,-4.724 l 0.309,0.059 c 3.198,0.618 4.822,2.782 4.062,6.719 l -4.085,21.164 c -0.784,4.06 -3.611,5.812 -8.04,4.957 z m 3.272,-36.372 c -1.128,0.439 -3.887,-3.006 -3.889,-6.452 -0.001,-2.695 1.502,-5.327 5.824,-6.833 l 3.133,-1.129 -0.006,-13.095 -3.008,-1.127 c -4.511,-1.752 -5.954,-4.571 -5.955,-7.202 -0.002,-3.76 2.879,-7.145 4.007,-6.706 l 33.966,13.644 c 2.006,0.626 3.447,2.066 3.449,7.768 0.003,5.639 -1.437,7.332 -3.442,7.959 z m 14.09,-16.548 11.778,-4.328 -11.781,-4.381 z m -11.356,-29.346 c -4.489,0.872 -7.48,-0.398 -8.138,-3.781 l -0.334,-1.722 c -0.693,-3.568 0.978,-5.807 4.669,-6.524 l 7.012,-1.362 -0.43,-2.214 -8.602,-4.201 c -4.071,-1.891 -6.102,-3.475 -6.842,-7.288 -1.027,-5.291 2.307,-8.171 2.87,-7.898 l 12.877,6.817 c 0.513,-5.907 4.232,-9.757 10.015,-10.88 8.487,-1.648 14.114,3.003 16.264,14.075 l 2.389,12.301 c 0.788,4.06 -1.18,6.74 -5.608,7.6 z m 11.979,-14.9 9.288,-1.804 -0.98,-5.044 c -0.753,-3.875 -2.699,-5.348 -5.773,-4.751 -2.952,0.574 -4.255,2.741 -3.538,6.432 z m -6.983,-26.996 c -11.548,4.531 -22.849,-0.255 -27.473,-12.037 -4.256,-10.849 -0.072,-17.337 3.603,-18.779 4.899,-1.923 8.652,4.21 8.371,4.523 -2.354,2.404 -2.994,5.751 -1.575,9.367 1.878,4.783 6.935,7.039 12.36,4.91 5.483,-2.151 7.564,-7.141 5.663,-11.982 -1.303,-3.324 -3.873,-5.412 -7.186,-5.795 -0.42,-0.037 -1.816,-7.028 3.084,-8.95 3.615,-1.419 10.841,0.525 15.028,11.199 4.623,11.782 -0.441,23.057 -11.875,27.544 m -28.968,-32.368 c -3.239,2.03 -5.903,1.555 -7.733,-1.365 l -0.965,-1.539 c -1.93,-3.08 -1.228,-5.737 2.009,-7.767 l 8.123,-5.091 -6.887,-10.99 -8.123,5.091 c -3.239,2.03 -5.902,1.555 -7.732,-1.365 l -0.998,-1.593 c -1.898,-3.026 -1.197,-5.684 2.043,-7.713 l 25.006,-15.672 c 3.291,-2.063 5.934,-1.502 7.832,1.524 l 0.998,1.593 c 1.83,2.92 1.148,5.491 -2.143,7.554 l -7.964,4.991 6.889,10.99 7.964,-4.991 c 3.291,-2.063 5.934,-1.502 7.864,1.577 l 0.966,1.54 c 1.829,2.92 1.148,5.491 -2.143,7.554 z"
             style="fill:#2fb4e9;fill-opacity:1;fill-rule:nonzero;stroke:none"
             id="path34" />
        </g>
        <g
           id="g36"
           transform="translate(491.4863,314.1085)">
          <path
             d="m 0,0 c -3.046,2.979 -8.938,2.781 -17.261,-5.729 -8.542,-8.737 -9.253,-16.542 -2.937,-22.72 5.331,-5.213 12.044,-3.277 18.862,1.185 3.65,2.389 5.795,4.85 7.497,3.185 1.433,-1.402 0.969,-3.49 -1.572,-6.088 -2.672,-2.732 -6.951,-4.419 -10.627,-4.593 -0.355,-0.004 -1.139,-5.108 1.369,-7.562 2.867,-2.803 8.752,-2.073 16.199,5.542 7.798,7.973 8.419,15.956 2.461,21.782 -6.003,5.871 -12.839,3.003 -18.555,-0.871 -3.475,-2.298 -5.709,-4.583 -7.501,-2.83 -1.479,1.446 -1.058,3.488 1.658,6.266 3.023,3.091 8.229,5.098 11.771,5.315 C 1.851,-7.069 2.149,-2.103 0,0 m -28.289,-24.809 c -2.374,2.997 -5.044,3.438 -7.744,1.298 l -1.425,-1.128 c -2.799,-2.219 -3.027,-4.957 -0.653,-7.953 l 18.329,-23.129 c 2.413,-3.045 5.092,-3.4 7.89,-1.182 l 1.425,1.129 c 2.7,2.14 2.919,4.791 0.506,7.835 z m -12.668,-12.293 c -2.37,3.912 -5.321,5.275 -8.269,3.489 l -1.5,-0.908 c -3.107,-1.885 -3.643,-4.627 -1.695,-7.842 l 3.702,-6.109 -1.929,-1.169 -8.892,3.55 c -4.134,1.744 -6.672,2.184 -9.994,0.171 -4.609,-2.792 -4.503,-7.198 -3.922,-7.432 l 13.701,-4.958 c -4.032,-4.348 -4.385,-9.69 -1.332,-14.727 4.481,-7.395 11.706,-8.438 21.352,-2.593 l 10.716,6.494 c 3.538,2.143 4.2,5.402 1.862,9.26 z m -2.991,-18.882 4.904,-8.091 -4.394,-2.663 c -3.376,-2.046 -5.775,-1.594 -7.398,1.085 -1.56,2.572 -0.828,4.993 2.387,6.941 z m -38.815,-4.374 c -1.508,4.318 -4.11,6.264 -7.364,5.129 l -1.894,-0.66 c -3.43,-1.197 -4.545,-3.709 -3.286,-7.318 l 2.537,-7.277 -8.519,-2.971 c -3.845,-1.341 -4.844,-3.614 -3.772,-6.69 l 0.082,-0.237 c 0.992,-2.84 3.108,-3.96 7.012,-2.597 l 8.934,3.114 2.166,-6.211 -13.074,-4.56 c -3.728,-1.3 -4.866,-3.555 -3.731,-6.809 l 0.124,-0.355 c 1.072,-3.077 3.366,-4.135 7.094,-2.835 l 18.695,6.52 c 3.905,1.362 5.23,4.412 3.744,8.672 z m -44.004,-11.433 c -0.633,3.77 -2.758,5.445 -6.156,4.873 l -1.792,-0.302 c -3.522,-0.593 -5.043,-2.882 -4.408,-6.651 l 1.715,-10.195 -10.369,-22.204 c -0.277,-0.618 2.768,-4.363 8.452,-3.406 2.039,0.343 3.819,1.849 5.141,5.313 l 4.649,11.647 7.895,-9.537 c 2.178,-2.747 4.425,-3.639 6.526,-3.286 6.301,1.061 7.789,5.441 7.314,5.996 l -17.25,17.557 z m -26.57,-4.137 c 0.048,3.821 -1.745,5.849 -5.19,5.891 l -1.066,0.013 c -3.571,0.045 -5.475,-1.937 -5.522,-5.759 l -0.2,-16.164 -14.611,19.417 c -1.667,2.026 -2.534,2.789 -5.542,2.826 l -1.002,0.012 c -3.134,0.039 -5.099,-1.879 -5.147,-5.764 l -0.364,-29.509 c -0.048,-3.821 1.744,-5.849 5.19,-5.891 l 1.064,-0.014 c 3.573,-0.044 5.477,1.938 5.524,5.76 l 0.198,16.039 14.302,-19.101 c 1.727,-2.089 2.657,-2.978 5.601,-3.014 l 1.191,-0.015 c 3.196,-0.039 5.162,1.879 5.21,5.763 z m -48.796,3.299 c -0.127,3.888 -2.206,5.464 -5.99,6.342 -3.662,0.85 -6.556,0.299 -8.354,-3.014 l -8.358,-15.235 -0.858,17.373 c -0.263,3.856 -2.45,5.521 -6.112,6.371 -3.784,0.878 -6.57,0.237 -8.293,-3.029 l -16.208,-29.108 c -0.325,-0.567 1.295,-4.674 6.178,-5.807 2.869,-0.665 6.167,0.242 8.126,4.804 l 7.289,16.448 0.568,-16.405 c 0.02,-2.964 2.384,-5.249 5.497,-5.971 3.296,-0.765 6.368,0.002 7.747,2.898 l 7.734,14.479 -0.655,-17.794 c -0.227,-5.414 2.757,-7.522 5.198,-8.088 5.188,-1.204 8.587,1.802 8.593,2.38 z m -56.352,16.191 c 1.697,3.424 0.96,6.028 -2.128,7.558 l -1.628,0.807 c -3.2,1.586 -5.775,0.625 -7.472,-2.8 l -4.592,-9.262 -21.423,-11.899 c -0.587,-0.338 -0.318,-5.157 4.846,-7.717 1.853,-0.919 4.178,-0.742 7.281,1.286 l 10.597,6.705 0.799,-12.354 c 0.153,-3.502 1.449,-5.543 3.357,-6.49 5.726,-2.838 9.5,-0.163 9.442,0.565 l -3.671,24.338 z"
             style="fill:#afca0b;fill-opacity:1;fill-rule:nonzero;stroke:none"
             id="path38" />
        </g>
      </g>
    </g>
  </g>
</svg>
